<?xml version="1.0" encoding="UTF-8"?>
<!DOCTYPE svg PUBLIC "-//W3C//DTD SVG 1.1//EN" "http://www.w3.org/Graphics/SVG/1.1/DTD/svg11.dtd">
<svg xmlns="http://www.w3.org/2000/svg" version="1.1" width="662px" height="225px" style="shape-rendering:geometricPrecision; text-rendering:geometricPrecision; image-rendering:optimizeQuality; fill-rule:evenodd; clip-rule:evenodd" xmlns:xlink="http://www.w3.org/1999/xlink">
<g><path style="opacity:1" fill="#010101" d="M -0.5,-0.5 C 220.167,-0.5 440.833,-0.5 661.5,-0.5C 661.5,74.5 661.5,149.5 661.5,224.5C 440.833,224.5 220.167,224.5 -0.5,224.5C -0.5,149.5 -0.5,74.5 -0.5,-0.5 Z"/></g>
<g><path style="opacity:1" fill="#6e6e6e" d="M 475.5,54.5 C 470.797,54.4372 466.13,54.7705 461.5,55.5C 464.017,54.027 466.85,53.3603 470,53.5C 472.033,53.5056 473.866,53.8389 475.5,54.5 Z"/></g>
<g><path style="opacity:1" fill="#737373" d="M 537.5,54.5 C 532.341,54.1817 527.341,54.8483 522.5,56.5C 523.058,55.2101 524.058,54.3768 525.5,54C 529.689,53.1881 533.689,53.3547 537.5,54.5 Z"/></g>
<g><path style="opacity:1" fill="#c1c1c1" d="M 359.5,55.5 C 356.167,55.5 352.833,55.5 349.5,55.5C 349.5,79.8333 349.5,104.167 349.5,128.5C 349.167,128.5 348.833,128.5 348.5,128.5C 348.5,103.833 348.5,79.1667 348.5,54.5C 352.371,54.185 356.038,54.5184 359.5,55.5 Z"/></g>
<g><path style="opacity:1" fill="#f0f0f0" d="M 359.5,55.5 C 359.5,79.8333 359.5,104.167 359.5,128.5C 356.167,128.5 352.833,128.5 349.5,128.5C 349.5,104.167 349.5,79.8333 349.5,55.5C 352.833,55.5 356.167,55.5 359.5,55.5 Z"/></g>
<g><path style="opacity:1" fill="#e0e0e0" d="M 306.5,55.5 C 312.558,56.3839 316.724,59.7172 319,65.5C 319.829,83.0049 319.662,100.338 318.5,117.5C 318.667,100.497 318.5,83.4967 318,66.5C 317.333,65.1667 316.667,65.1667 316,66.5C 315.889,62.7177 314.056,61.2177 310.5,62C 312.812,64.414 314.479,67.2473 315.5,70.5C 315.154,71.6956 314.654,71.6956 314,70.5C 313.667,73.5 313.333,76.5 313,79.5C 313.207,73.2628 311.207,67.9294 307,63.5C 306.517,64.448 306.351,65.448 306.5,66.5C 303.236,65.6758 299.902,65.3424 296.5,65.5C 296.5,82.8333 296.5,100.167 296.5,117.5C 295.668,100.338 295.168,83.0048 295,65.5C 293.415,66.3757 292.415,67.7091 292,69.5C 291.333,85.1667 291.333,100.833 292,116.5C 293.677,118.676 295.511,120.676 297.5,122.5C 297.291,123.086 296.957,123.586 296.5,124C 294.5,124.667 292.5,124.667 290.5,124C 289.884,122.6 289.551,121.1 289.5,119.5C 289.566,99.6497 289.566,79.6497 289.5,59.5C 295.021,59.9457 300.355,59.4457 305.5,58C 299.285,56.5845 292.952,56.0845 286.5,56.5C 286.5,80.1667 286.5,103.833 286.5,127.5C 293.5,127.5 300.5,127.5 307.5,127.5C 300.352,128.492 293.019,128.825 285.5,128.5C 285.5,104.167 285.5,79.8333 285.5,55.5C 292.5,55.5 299.5,55.5 306.5,55.5 Z"/></g>
<g><path style="opacity:1" fill="#939393" d="M 164.5,55.5 C 164.76,61.1939 163.76,66.5273 161.5,71.5C 161.956,65.9391 162.956,60.6058 164.5,55.5 Z"/></g>
<g><path style="opacity:1" fill="#8c8c8c" d="M 254.5,55.5 C 251.5,55.5 248.5,55.5 245.5,55.5C 245.833,69.5159 245.499,83.5159 244.5,97.5C 243.702,97.0431 243.369,96.3764 243.5,95.5C 244.496,82.0102 244.829,68.3435 244.5,54.5C 248.042,54.1872 251.375,54.5206 254.5,55.5 Z"/></g>
<g><path style="opacity:1" fill="#767676" d="M 484.5,60.5 C 485.906,60.9731 486.573,61.9731 486.5,63.5C 485.094,63.0269 484.427,62.0269 484.5,60.5 Z"/></g>
<g><path style="opacity:1" fill="#9b9b9b" d="M 412.5,55.5 C 405.167,55.5 397.833,55.5 390.5,55.5C 390.5,79.8333 390.5,104.167 390.5,128.5C 389.502,104.006 389.169,79.339 389.5,54.5C 397.352,54.1746 405.018,54.508 412.5,55.5 Z"/></g>
<g><path style="opacity:1" fill="#e7e7e7" d="M 475.5,54.5 C 479.37,55.2633 482.37,57.2633 484.5,60.5C 484.427,62.0269 485.094,63.0269 486.5,63.5C 487.141,72.7886 487.474,82.1219 487.5,91.5C 487.628,101.237 487.128,110.904 486,120.5C 480.324,128.84 472.49,131.673 462.5,129C 457.884,126.382 454.717,122.549 453,117.5C 452.333,99.8333 452.333,82.1667 453,64.5C 454.659,60.3422 457.492,57.3422 461.5,55.5C 466.13,54.7705 470.797,54.4372 475.5,54.5 Z"/></g>
<g><path style="opacity:1" fill="#0d0d0d" d="M 466.5,64.5 C 470.192,63.9712 473.358,64.9712 476,67.5C 476.667,83.1667 476.667,98.8333 476,114.5C 472.674,120.642 469.007,120.975 465,115.5C 464.333,99.5 464.333,83.5 465,67.5C 465.513,66.4734 466.013,65.4734 466.5,64.5 Z"/></g>
<g><path style="opacity:1" fill="#f0f0f0" d="M 412.5,55.5 C 418.086,56.7542 421.753,60.0875 423.5,65.5C 423.667,82.17 423.5,98.8367 423,115.5C 421.883,116.949 421.216,118.616 421,120.5C 418.291,119.176 417.958,117.51 420,115.5C 420.667,100.833 420.667,86.1667 420,71.5C 418.534,68.2683 417.367,64.935 416.5,61.5C 413.562,60.4252 410.562,60.2585 407.5,61C 408.167,62.3333 409.167,63.3333 410.5,64C 407.305,64.1805 404.305,64.6805 401.5,65.5C 400.503,82.9921 400.17,100.659 400.5,118.5C 403.713,118.81 406.713,118.477 409.5,117.5C 410.833,116.833 411.833,115.833 412.5,114.5C 413.496,99.0089 413.83,83.3422 413.5,67.5C 416.05,67.5608 417.55,68.8941 418,71.5C 418.667,84.8333 418.667,98.1667 418,111.5C 417.208,113.587 416.041,115.421 414.5,117C 415.863,119.129 415.529,119.629 413.5,118.5C 409.961,121.631 405.961,122.131 401.5,120C 399.667,118.833 398.167,117.333 397,115.5C 396.333,99.8333 396.333,84.1667 397,68.5C 397.318,66.9391 398.151,65.7724 399.5,65C 399.167,64.6667 398.833,64.3333 398.5,64C 403.872,61.6596 403.705,60.1596 398,59.5C 396.289,59.4393 394.956,60.1059 394,61.5C 393.333,82.5 393.333,103.5 394,124.5C 394.667,125.167 395.333,125.833 396,126.5C 401.595,126.031 407.095,125.031 412.5,123.5C 415.855,124.442 416.188,125.775 413.5,127.5C 406.018,128.492 398.352,128.825 390.5,128.5C 390.5,104.167 390.5,79.8333 390.5,55.5C 397.833,55.5 405.167,55.5 412.5,55.5 Z"/></g>
<g><path style="opacity:1" fill="#656565" d="M 547.5,63.5 C 548.926,65.6789 549.592,68.1789 549.5,71C 549.492,72.7067 549.158,74.2067 548.5,75.5C 548.5,75.1667 548.5,74.8333 548.5,74.5C 548.448,70.8019 548.114,67.1352 547.5,63.5 Z"/></g>
<g><path style="opacity:1" fill="#969696" d="M 306.5,55.5 C 299.5,55.5 292.5,55.5 285.5,55.5C 285.5,79.8333 285.5,104.167 285.5,128.5C 284.502,104.006 284.169,79.339 284.5,54.5C 292.019,54.175 299.352,54.5084 306.5,55.5 Z"/></g>
<g><path style="opacity:1" fill="#7d7d7d" d="M 181.5,65.5 C 183.04,67.8383 183.706,70.5049 183.5,73.5C 182.232,71.0948 181.565,68.4282 181.5,65.5 Z"/></g>
<g><path style="opacity:1" fill="#b2b2b2" d="M 537.5,67.5 C 538.468,69.6074 538.802,71.9407 538.5,74.5C 541.833,74.5 545.167,74.5 548.5,74.5C 548.5,74.8333 548.5,75.1667 548.5,75.5C 544.833,75.5 541.167,75.5 537.5,75.5C 537.5,72.8333 537.5,70.1667 537.5,67.5 Z"/></g>
<g><path style="opacity:1" fill="#e5e5e5" d="M 236.5,68.5 C 236.41,71.1522 237.076,73.4855 238.5,75.5C 238.5,75.8333 238.5,76.1667 238.5,76.5C 238.41,79.1522 239.076,81.4855 240.5,83.5C 242.004,87.3484 243.004,91.3484 243.5,95.5C 243.369,96.3764 243.702,97.0431 244.5,97.5C 245.499,83.5159 245.833,69.5159 245.5,55.5C 248.5,55.5 251.5,55.5 254.5,55.5C 255.498,79.6609 255.831,103.994 255.5,128.5C 251.167,128.5 246.833,128.5 242.5,128.5C 240.88,119.731 238.88,111.065 236.5,102.5C 236.59,99.8478 235.924,97.5145 234.5,95.5C 233.78,90.0069 232.446,84.6735 230.5,79.5C 230.762,78.0222 230.429,76.6888 229.5,75.5C 228.5,93.1541 228.167,110.821 228.5,128.5C 225.167,128.5 221.833,128.5 218.5,128.5C 218.333,104.164 218.5,79.8311 219,55.5C 223.748,54.3651 228.581,54.1985 233.5,55C 235.206,59.3253 236.206,63.8253 236.5,68.5 Z"/></g>
<g><path style="opacity:1" fill="#a3a3a3" d="M 236.5,68.5 C 237.924,70.5145 238.59,72.8478 238.5,75.5C 237.076,73.4855 236.41,71.1522 236.5,68.5 Z"/></g>
<g><path style="opacity:1" fill="#a3a3a3" d="M 238.5,76.5 C 239.924,78.5145 240.59,80.8478 240.5,83.5C 239.076,81.4855 238.41,79.1522 238.5,76.5 Z"/></g>
<g><path style="opacity:1" fill="#e5e5e5" d="M 584.5,79.5 C 598.527,79.9971 603.027,86.6638 598,99.5C 590.278,105.428 583.278,104.761 577,97.5C 574.425,89.1684 576.925,83.1684 584.5,79.5 Z"/></g>
<g><path style="opacity:1" fill="#a8a8a8" d="M 42.5,83.5 C 40.6243,86.9209 39.6243,90.5876 39.5,94.5C 37.6555,90.1158 38.6555,86.4491 42.5,83.5 Z"/></g>
<g><path style="opacity:1" fill="#e5e5e5" d="M 39.5,94.5 C 39.6243,90.5876 40.6243,86.9209 42.5,83.5C 44.3047,80.5975 46.9714,79.2641 50.5,79.5C 61.0904,80.9903 64.9238,86.9903 62,97.5C 57.9139,103.225 52.4139,105.059 45.5,103C 43.3421,101.543 41.5088,99.7097 40,97.5C 39.5172,96.552 39.3505,95.552 39.5,94.5 Z"/></g>
<g><path style="opacity:1" fill="#9d9d9d" d="M 184.5,81.5 C 185.581,84.6267 186.247,87.9601 186.5,91.5C 185.778,91.0825 185.278,90.4158 185,89.5C 184.503,86.854 184.336,84.1873 184.5,81.5 Z"/></g>
<g><path style="opacity:1" fill="#e9e9e9" d="M 537.5,54.5 C 542.131,56.1349 545.465,59.1349 547.5,63.5C 548.114,67.1352 548.448,70.8019 548.5,74.5C 545.167,74.5 541.833,74.5 538.5,74.5C 538.802,71.9407 538.468,69.6074 537.5,67.5C 529.067,61.8592 525.567,64.1925 527,74.5C 527.892,77.9518 529.558,80.9518 532,83.5C 538.837,88.1629 544.004,94.1629 547.5,101.5C 548.229,106.13 548.563,110.797 548.5,115.5C 546.949,125.704 540.949,130.371 530.5,129.5C 521.489,129.823 516.489,125.489 515.5,116.5C 515.5,113.5 515.5,110.5 515.5,107.5C 518.833,107.5 522.167,107.5 525.5,107.5C 524.987,111.79 525.987,115.623 528.5,119C 534.673,120.328 537.673,117.828 537.5,111.5C 537.522,109.035 537.022,106.702 536,104.5C 530.671,98.1716 525.005,92.1716 519,86.5C 513.51,77.6425 513.177,68.6425 518,59.5C 519.129,57.8588 520.629,56.8588 522.5,56.5C 527.341,54.8483 532.341,54.1817 537.5,54.5 Z"/></g>
<g><path style="opacity:1" fill="#eaeaea" d="M 181.5,65.5 C 181.565,68.4282 182.232,71.0948 183.5,73.5C 184.092,76.1272 184.425,78.7938 184.5,81.5C 184.336,84.1873 184.503,86.854 185,89.5C 185.278,90.4158 185.778,91.0825 186.5,91.5C 188.708,103.751 190.375,116.084 191.5,128.5C 187.833,128.5 184.167,128.5 180.5,128.5C 180.5,127.5 180.5,126.5 180.5,125.5C 180.192,121.64 179.525,117.974 178.5,114.5C 174.167,114.5 169.833,114.5 165.5,114.5C 163.888,118.994 163.222,123.661 163.5,128.5C 160.167,128.5 156.833,128.5 153.5,128.5C 153.5,126.167 153.5,123.833 153.5,121.5C 156.003,104.807 158.67,88.1403 161.5,71.5C 163.76,66.5273 164.76,61.1939 164.5,55.5C 169.64,54.5119 174.974,54.1786 180.5,54.5C 181.244,58.1185 181.577,61.7852 181.5,65.5 Z"/></g>
<g><path style="opacity:1" fill="#414141" d="M 170.5,79.5 C 170.638,84.4141 169.972,89.0808 168.5,93.5C 168.229,88.5662 168.896,83.8996 170.5,79.5 Z"/></g>
<g><path style="opacity:1" fill="#121212" d="M 176.5,100.5 C 176.5,101.5 176.5,102.5 176.5,103.5C 173.5,103.5 170.5,103.5 167.5,103.5C 167.5,102.167 167.5,100.833 167.5,99.5C 167.517,97.4352 167.85,95.4352 168.5,93.5C 169.972,89.0808 170.638,84.4141 170.5,79.5C 170.457,76.0901 170.957,72.7568 172,69.5C 174.12,79.7436 175.62,90.077 176.5,100.5 Z"/></g>
<g><path style="opacity:1" fill="#808080" d="M 230.5,79.5 C 229.833,95.8333 229.167,112.167 228.5,128.5C 228.167,110.821 228.5,93.1541 229.5,75.5C 230.429,76.6888 230.762,78.0222 230.5,79.5 Z"/></g>
<g><path style="opacity:1" fill="#e4e4e4" d="M 92.5,54.5 C 99.5079,54.3337 106.508,54.5004 113.5,55C 119.148,55.7346 123.314,58.5679 126,63.5C 126.667,69.8333 126.667,76.1667 126,82.5C 124.357,84.9768 122.524,87.3102 120.5,89.5C 126.889,93.6033 129.222,99.4366 127.5,107C 128.861,114.485 126.861,120.819 121.5,126C 119.608,126.973 117.608,127.64 115.5,128C 107.507,128.5 99.5069,128.666 91.5,128.5C 91.1768,103.759 91.5102,79.0921 92.5,54.5 Z"/></g>
<g><path style="opacity:1" fill="#0b0b0b" d="M 113.5,96.5 C 115.914,100.021 116.914,104.021 116.5,108.5C 116.884,112.481 115.55,115.481 112.5,117.5C 109.833,117.5 107.167,117.5 104.5,117.5C 104.5,110.5 104.5,103.5 104.5,96.5C 107.5,96.5 110.5,96.5 113.5,96.5 Z"/></g>
<g><path style="opacity:1" fill="#505050" d="M 111.5,66.5 C 109.167,66.5 106.833,66.5 104.5,66.5C 104.5,72.5 104.5,78.5 104.5,84.5C 106.833,84.5 109.167,84.5 111.5,84.5C 109.052,85.4731 106.385,85.8064 103.5,85.5C 103.5,78.8333 103.5,72.1667 103.5,65.5C 106.385,65.1936 109.052,65.5269 111.5,66.5 Z"/></g>
<g><path style="opacity:1" fill="#050505" d="M 111.5,66.5 C 112.496,66.4142 113.329,66.7476 114,67.5C 114.667,72.5 114.667,77.5 114,82.5C 113.005,83.0659 112.172,83.7326 111.5,84.5C 109.167,84.5 106.833,84.5 104.5,84.5C 104.5,78.5 104.5,72.5 104.5,66.5C 106.833,66.5 109.167,66.5 111.5,66.5 Z"/></g>
<g><path style="opacity:1" fill="#5b5b5b" d="M 234.5,95.5 C 235.924,97.5145 236.59,99.8478 236.5,102.5C 235.076,100.485 234.41,98.1522 234.5,95.5 Z"/></g>
<g><path style="opacity:1" fill="#4a4a4a" d="M 113.5,96.5 C 110.5,96.5 107.5,96.5 104.5,96.5C 104.5,103.5 104.5,110.5 104.5,117.5C 107.167,117.5 109.833,117.5 112.5,117.5C 109.713,118.477 106.713,118.81 103.5,118.5C 103.5,110.833 103.5,103.167 103.5,95.5C 107.042,95.1872 110.375,95.5206 113.5,96.5 Z"/></g>
<g><path style="opacity:1" fill="#5a5a5a" d="M 167.5,99.5 C 167.5,100.833 167.5,102.167 167.5,103.5C 170.5,103.5 173.5,103.5 176.5,103.5C 176.5,102.5 176.5,101.5 176.5,100.5C 177.434,101.568 177.768,102.901 177.5,104.5C 173.833,104.5 170.167,104.5 166.5,104.5C 166.216,102.585 166.549,100.919 167.5,99.5 Z"/></g>
<g><path style="opacity:1" fill="#7c7c7c" d="M 547.5,101.5 C 548.973,104.017 549.64,106.85 549.5,110C 549.494,112.033 549.161,113.866 548.5,115.5C 548.563,110.797 548.229,106.13 547.5,101.5 Z"/></g>
<g><path style="opacity:1" fill="#909090" d="M 525.5,107.5 C 522.167,107.5 518.833,107.5 515.5,107.5C 515.5,110.5 515.5,113.5 515.5,116.5C 514.521,113.375 514.187,110.042 514.5,106.5C 518.371,106.185 522.038,106.518 525.5,107.5 Z"/></g>
<g><path style="opacity:1" fill="#dedede" d="M 412.5,114.5 C 412.667,98.8298 412.5,83.1631 412,67.5C 408.757,65.7375 405.257,65.0708 401.5,65.5C 404.305,64.6805 407.305,64.1805 410.5,64C 409.167,63.3333 408.167,62.3333 407.5,61C 410.562,60.2585 413.562,60.4252 416.5,61.5C 417.367,64.935 418.534,68.2683 420,71.5C 420.667,86.1667 420.667,100.833 420,115.5C 417.958,117.51 418.291,119.176 421,120.5C 421.216,118.616 421.883,116.949 423,115.5C 423.5,98.8367 423.667,82.17 423.5,65.5C 424.662,82.6618 424.829,99.9951 424,117.5C 422.547,123.123 419.047,126.456 413.5,127.5C 416.188,125.775 415.855,124.442 412.5,123.5C 407.095,125.031 401.595,126.031 396,126.5C 395.333,125.833 394.667,125.167 394,124.5C 393.333,103.5 393.333,82.5 394,61.5C 394.956,60.1059 396.289,59.4393 398,59.5C 403.705,60.1596 403.872,61.6596 398.5,64C 398.833,64.3333 399.167,64.6667 399.5,65C 398.151,65.7724 397.318,66.9391 397,68.5C 396.333,84.1667 396.333,99.8333 397,115.5C 398.167,117.333 399.667,118.833 401.5,120C 405.961,122.131 409.961,121.631 413.5,118.5C 415.529,119.629 415.863,119.129 414.5,117C 416.041,115.421 417.208,113.587 418,111.5C 418.667,98.1667 418.667,84.8333 418,71.5C 417.55,68.8941 416.05,67.5608 413.5,67.5C 413.83,83.3422 413.496,99.0089 412.5,114.5 Z"/></g>
<g><path style="opacity:1" fill="#989898" d="M 401.5,65.5 C 401.5,82.8333 401.5,100.167 401.5,117.5C 404.167,117.5 406.833,117.5 409.5,117.5C 406.713,118.477 403.713,118.81 400.5,118.5C 400.17,100.659 400.503,82.9921 401.5,65.5 Z"/></g>
<g><path style="opacity:1" fill="#050505" d="M 401.5,65.5 C 405.257,65.0708 408.757,65.7375 412,67.5C 412.5,83.1631 412.667,98.8298 412.5,114.5C 411.833,115.833 410.833,116.833 409.5,117.5C 406.833,117.5 404.167,117.5 401.5,117.5C 401.5,100.167 401.5,82.8333 401.5,65.5 Z"/></g>
<g><path style="opacity:1" fill="#efefef" d="M 296.5,117.5 C 301.519,119.72 305.352,118.387 308,113.5C 308.667,98.5 308.667,83.5 308,68.5C 307.283,67.9558 306.783,67.2891 306.5,66.5C 306.351,65.448 306.517,64.448 307,63.5C 311.207,67.9294 313.207,73.2628 313,79.5C 313.333,76.5 313.667,73.5 314,70.5C 314.654,71.6956 315.154,71.6956 315.5,70.5C 314.479,67.2473 312.812,64.414 310.5,62C 314.056,61.2177 315.889,62.7177 316,66.5C 316.667,65.1667 317.333,65.1667 318,66.5C 318.5,83.4967 318.667,100.497 318.5,117.5C 317.336,123.667 313.669,127 307.5,127.5C 300.5,127.5 293.5,127.5 286.5,127.5C 286.5,103.833 286.5,80.1667 286.5,56.5C 292.952,56.0845 299.285,56.5845 305.5,58C 300.355,59.4457 295.021,59.9457 289.5,59.5C 289.566,79.6497 289.566,99.6497 289.5,119.5C 289.551,121.1 289.884,122.6 290.5,124C 292.5,124.667 294.5,124.667 296.5,124C 296.957,123.586 297.291,123.086 297.5,122.5C 295.511,120.676 293.677,118.676 292,116.5C 291.333,100.833 291.333,85.1667 292,69.5C 292.415,67.7091 293.415,66.3757 295,65.5C 295.168,83.0048 295.668,100.338 296.5,117.5 Z"/></g>
<g><path style="opacity:1" fill="#101010" d="M 306.5,66.5 C 306.783,67.2891 307.283,67.9558 308,68.5C 308.667,83.5 308.667,98.5 308,113.5C 305.352,118.387 301.519,119.72 296.5,117.5C 296.5,100.167 296.5,82.8333 296.5,65.5C 299.902,65.3424 303.236,65.6758 306.5,66.5 Z"/></g>
<g><path style="opacity:1" fill="#4e4e4e" d="M 178.5,114.5 C 179.525,117.974 180.192,121.64 180.5,125.5C 178.783,122.155 178.116,118.489 178.5,114.5 Z"/></g>
<g><path style="opacity:1" fill="#484848" d="M 153.5,121.5 C 153.5,123.833 153.5,126.167 153.5,128.5C 156.833,128.5 160.167,128.5 163.5,128.5C 160.038,129.482 156.371,129.815 152.5,129.5C 152.194,126.615 152.527,123.948 153.5,121.5 Z"/></g>
<g><path style="opacity:1" fill="#656565" d="M 359.5,55.5 C 360.498,79.9944 360.831,104.661 360.5,129.5C 356.298,129.817 352.298,129.483 348.5,128.5C 348.833,128.5 349.167,128.5 349.5,128.5C 352.833,128.5 356.167,128.5 359.5,128.5C 359.5,104.167 359.5,79.8333 359.5,55.5 Z"/></g>
<g><path style="opacity:1" fill="#888888" d="M 414.5,146.5 C 410.671,145.931 407.337,146.598 404.5,148.5C 403.596,147.791 403.263,146.791 403.5,145.5C 407.371,145.185 411.038,145.518 414.5,146.5 Z"/></g>
<g><path style="opacity:1" fill="#646464" d="M 209.5,146.5 C 207.167,146.5 204.833,146.5 202.5,146.5C 202.5,153.5 202.5,160.5 202.5,167.5C 201.508,160.352 201.175,153.019 201.5,145.5C 204.385,145.194 207.052,145.527 209.5,146.5 Z"/></g>
<g><path style="opacity:1" fill="#808080" d="M 247.5,146.5 C 245.167,146.5 242.833,146.5 240.5,146.5C 240.5,153.5 240.5,160.5 240.5,167.5C 239.508,160.352 239.175,153.019 239.5,145.5C 242.385,145.194 245.052,145.527 247.5,146.5 Z"/></g>
<g><path style="opacity:1" fill="#d5d5d5" d="M 388.5,145.5 C 393.836,144.185 396.503,146.185 396.5,151.5C 395.5,151.5 394.5,151.5 393.5,151.5C 393.5,150.5 393.5,149.5 393.5,148.5C 392.5,148.5 391.5,148.5 390.5,148.5C 390.34,150.199 390.506,151.866 391,153.5C 395.97,156.108 397.637,160.108 396,165.5C 390.621,170.171 387.454,168.837 386.5,161.5C 387.833,161.5 389.167,161.5 390.5,161.5C 390.5,162.5 390.5,163.5 390.5,164.5C 391.5,164.5 392.5,164.5 393.5,164.5C 393.203,160.674 391.37,157.674 388,155.5C 385.899,151.943 386.066,148.61 388.5,145.5 Z"/></g>
<g><path style="opacity:1" fill="#878787" d="M 363.5,146.5 C 361.167,146.5 358.833,146.5 356.5,146.5C 356.5,153.5 356.5,160.5 356.5,167.5C 355.508,160.352 355.175,153.019 355.5,145.5C 358.385,145.194 361.052,145.527 363.5,146.5 Z"/></g>
<g><path style="opacity:1" fill="#bebebe" d="M 365.5,147.5 C 366.59,150.681 366.59,154.015 365.5,157.5C 364.698,156.048 364.198,154.382 364,152.5C 363.722,153.416 363.222,154.082 362.5,154.5C 361.432,155.434 360.099,155.768 358.5,155.5C 358.5,153.167 358.5,150.833 358.5,148.5C 360.792,148.244 362.959,148.577 365,149.5C 365.464,148.906 365.631,148.239 365.5,147.5 Z"/></g>
<g><path style="opacity:1" fill="#949494" d="M 430.5,146.5 C 428.167,146.5 425.833,146.5 423.5,146.5C 423.5,153.5 423.5,160.5 423.5,167.5C 422.508,160.352 422.175,153.019 422.5,145.5C 425.385,145.194 428.052,145.527 430.5,146.5 Z"/></g>
<g><path style="opacity:1" fill="#7b7b7b" d="M 224.5,146.5 C 223.5,146.5 222.5,146.5 221.5,146.5C 221.5,152.833 221.5,159.167 221.5,165.5C 220.509,159.021 220.176,152.354 220.5,145.5C 222.099,145.232 223.432,145.566 224.5,146.5 Z"/></g>
<g><path style="opacity:1" fill="#939393" d="M 230.5,165.5 C 230.83,159.132 230.496,152.798 229.5,146.5C 228.833,152.654 228.167,158.654 227.5,164.5C 227.5,158.167 227.5,151.833 227.5,145.5C 228.833,145.5 230.167,145.5 231.5,145.5C 231.824,152.354 231.491,159.021 230.5,165.5 Z"/></g>
<g><path style="opacity:1" fill="#747474" d="M 286.5,148.5 C 285.081,149.451 283.415,149.784 281.5,149.5C 281.5,151.167 281.5,152.833 281.5,154.5C 280.539,152.735 280.205,150.735 280.5,148.5C 282.5,148.5 284.5,148.5 286.5,148.5 Z"/></g>
<g><path style="opacity:1" fill="#181818" d="M 362.5,154.5 C 361.5,154.5 360.5,154.5 359.5,154.5C 359.5,152.833 359.5,151.167 359.5,149.5C 360.5,149.5 361.5,149.5 362.5,149.5C 362.5,151.167 362.5,152.833 362.5,154.5 Z"/></g>
<g><path style="opacity:1" fill="#dedede" d="M 259.5,147.5 C 260.816,150.087 261.483,153.087 261.5,156.5C 261.483,159.913 260.816,162.913 259.5,165.5C 258.167,159.5 258.167,153.5 259.5,147.5 Z"/></g>
<g><path style="opacity:1" fill="#b5b5b5" d="M 286.5,148.5 C 284.365,146.631 281.698,145.964 278.5,146.5C 278.5,153.5 278.5,160.5 278.5,167.5C 277.508,160.352 277.175,153.019 277.5,145.5C 280.833,145.5 284.167,145.5 287.5,145.5C 287.737,146.791 287.404,147.791 286.5,148.5 Z"/></g>
<g><path style="opacity:1" fill="#646464" d="M 303.5,146.5 C 300.833,146.5 298.167,146.5 295.5,146.5C 295.5,153.5 295.5,160.5 295.5,167.5C 294.508,160.352 294.175,153.019 294.5,145.5C 297.713,145.19 300.713,145.523 303.5,146.5 Z"/></g>
<g><path style="opacity:1" fill="#717171" d="M 329.5,154.5 C 328.539,152.735 328.205,150.735 328.5,148.5C 330.288,148.785 331.955,148.452 333.5,147.5C 331.189,146.425 328.856,146.425 326.5,147.5C 326.611,146.883 326.944,146.383 327.5,146C 329.81,145.503 332.143,145.337 334.5,145.5C 334.5,146.833 334.5,148.167 334.5,149.5C 332.833,149.5 331.167,149.5 329.5,149.5C 329.5,151.167 329.5,152.833 329.5,154.5 Z"/></g>
<g><path style="opacity:1" fill="#d8d8d8" d="M 414.5,146.5 C 414.179,148.048 413.179,148.715 411.5,148.5C 411.5,154.833 411.5,161.167 411.5,167.5C 410.167,167.5 408.833,167.5 407.5,167.5C 407.5,161.5 407.5,155.5 407.5,149.5C 406.209,149.737 405.209,149.404 404.5,148.5C 407.337,146.598 410.671,145.931 414.5,146.5 Z"/></g>
<g><path style="opacity:1" fill="#cecece" d="M 443.5,145.5 C 446.97,144.875 449.804,145.875 452,148.5C 452.667,153.833 452.667,159.167 452,164.5C 449.177,169.395 445.843,169.729 442,165.5C 441.333,159.5 441.333,153.5 442,147.5C 442.717,146.956 443.217,146.289 443.5,145.5 Z"/></g>
<g><path style="opacity:1" fill="#151515" d="M 445.5,148.5 C 446.496,148.414 447.329,148.748 448,149.5C 448.499,154.489 448.666,159.489 448.5,164.5C 447.5,164.5 446.5,164.5 445.5,164.5C 445.5,159.167 445.5,153.833 445.5,148.5 Z"/></g>
<g><path style="opacity:1" fill="#a6a6a6" d="M 377.5,167.5 C 376.833,139.5 376.167,139.5 375.5,167.5C 374.508,160.352 374.175,153.019 374.5,145.5C 375.833,145.5 377.167,145.5 378.5,145.5C 378.825,153.019 378.492,160.352 377.5,167.5 Z"/></g>
<g><path style="opacity:1" fill="#dcdcdc" d="M 430.5,146.5 C 434.168,149.34 434.502,152.673 431.5,156.5C 431.624,157.107 431.957,157.44 432.5,157.5C 433.069,161.329 432.402,164.663 430.5,167.5C 429.683,165.031 429.183,162.365 429,159.5C 428.586,159.043 428.086,158.709 427.5,158.5C 426.516,161.428 426.183,164.428 426.5,167.5C 425.5,167.5 424.5,167.5 423.5,167.5C 423.5,160.5 423.5,153.5 423.5,146.5C 425.833,146.5 428.167,146.5 430.5,146.5 Z"/></g>
<g><path style="opacity:1" fill="#1a1a1a" d="M 426.5,149.5 C 427.5,149.5 428.5,149.5 429.5,149.5C 429.5,151.5 429.5,153.5 429.5,155.5C 428.5,155.5 427.5,155.5 426.5,155.5C 426.5,153.5 426.5,151.5 426.5,149.5 Z"/></g>
<g><path style="opacity:1" fill="#e4e4e4" d="M 209.5,146.5 C 211.95,146.874 212.95,148.374 212.5,151C 212.111,155.781 211.945,160.614 212,165.5C 209.174,167.34 206.007,168.006 202.5,167.5C 202.5,160.5 202.5,153.5 202.5,146.5C 204.833,146.5 207.167,146.5 209.5,146.5 Z"/></g>
<g><path style="opacity:1" fill="#0f0f0f" d="M 208.5,149.5 C 208.923,151.781 208.256,153.448 206.5,154.5C 206.077,152.219 206.744,150.552 208.5,149.5 Z"/></g>
<g><path style="opacity:1" fill="#5d5d5d" d="M 208.5,149.5 C 206.744,150.552 206.077,152.219 206.5,154.5C 205.539,152.735 205.205,150.735 205.5,148.5C 206.791,148.263 207.791,148.596 208.5,149.5 Z"/></g>
<g><path style="opacity:1" fill="#e0e0e0" d="M 247.5,146.5 C 249.511,147.417 250.511,149.083 250.5,151.5C 250.083,156.746 250.083,162.08 250.5,167.5C 249.167,167.5 247.833,167.5 246.5,167.5C 246.5,164.5 246.5,161.5 246.5,158.5C 245.5,158.5 244.5,158.5 243.5,158.5C 243.5,161.5 243.5,164.5 243.5,167.5C 242.5,167.5 241.5,167.5 240.5,167.5C 240.5,160.5 240.5,153.5 240.5,146.5C 242.833,146.5 245.167,146.5 247.5,146.5 Z"/></g>
<g><path style="opacity:1" fill="#232323" d="M 243.5,148.5 C 244.5,148.5 245.5,148.5 246.5,148.5C 246.5,150.5 246.5,152.5 246.5,154.5C 245.5,154.5 244.5,154.5 243.5,154.5C 243.5,152.5 243.5,150.5 243.5,148.5 Z"/></g>
<g><path style="opacity:1" fill="#dcdcdc" d="M 329.5,154.5 C 331.2,154.374 332.7,153.707 334,152.5C 334.772,152.645 335.439,152.978 336,153.5C 335.774,158.123 335.607,162.79 335.5,167.5C 332.388,168.078 329.388,168.078 326.5,167.5C 325.676,164.236 325.342,160.902 325.5,157.5C 325.471,154.193 325.804,150.859 326.5,147.5C 328.856,146.425 331.189,146.425 333.5,147.5C 331.955,148.452 330.288,148.785 328.5,148.5C 328.205,150.735 328.539,152.735 329.5,154.5 Z"/></g>
<g><path style="opacity:1" fill="#565656" d="M 208.5,163.5 C 208.785,161.712 208.452,160.045 207.5,158.5C 206.534,160.396 206.201,162.396 206.5,164.5C 205.532,162.393 205.198,160.059 205.5,157.5C 206.833,157.5 208.167,157.5 209.5,157.5C 209.795,159.735 209.461,161.735 208.5,163.5 Z"/></g>
<g><path style="opacity:1" fill="#0d0d0d" d="M 208.5,163.5 C 208.158,164.338 207.492,164.672 206.5,164.5C 206.201,162.396 206.534,160.396 207.5,158.5C 208.452,160.045 208.785,161.712 208.5,163.5 Z"/></g>
<g><path style="opacity:1" fill="#727272" d="M 285.5,157.5 C 284.432,158.434 283.099,158.768 281.5,158.5C 281.5,160.5 281.5,162.5 281.5,164.5C 280.532,162.393 280.198,160.059 280.5,157.5C 282.167,157.5 283.833,157.5 285.5,157.5 Z"/></g>
<g><path style="opacity:1" fill="#171717" d="M 328.5,158.5 C 329.5,158.5 330.5,158.5 331.5,158.5C 331.5,160.5 331.5,162.5 331.5,164.5C 330.5,164.5 329.5,164.5 328.5,164.5C 328.5,162.5 328.5,160.5 328.5,158.5 Z"/></g>
<g><path style="opacity:1" fill="#eaeaea" d="M 286.5,148.5 C 284.5,148.5 282.5,148.5 280.5,148.5C 280.205,150.735 280.539,152.735 281.5,154.5C 282.833,154.5 284.167,154.5 285.5,154.5C 285.5,155.5 285.5,156.5 285.5,157.5C 283.833,157.5 282.167,157.5 280.5,157.5C 280.198,160.059 280.532,162.393 281.5,164.5C 283.5,164.5 285.5,164.5 287.5,164.5C 287.5,165.5 287.5,166.5 287.5,167.5C 284.5,167.5 281.5,167.5 278.5,167.5C 278.5,160.5 278.5,153.5 278.5,146.5C 281.698,145.964 284.365,146.631 286.5,148.5 Z"/></g>
<g><path style="opacity:1" fill="#e7e7e7" d="M 303.5,146.5 C 305.78,149.146 306.113,152.146 304.5,155.5C 302.456,156.508 300.456,157.508 298.5,158.5C 298.5,161.5 298.5,164.5 298.5,167.5C 297.5,167.5 296.5,167.5 295.5,167.5C 295.5,160.5 295.5,153.5 295.5,146.5C 298.167,146.5 300.833,146.5 303.5,146.5 Z"/></g>
<g><path style="opacity:1" fill="#121212" d="M 301.5,149.5 C 301.5,151.167 301.5,152.833 301.5,154.5C 300.351,154.209 299.684,153.376 299.5,152C 299.684,150.624 300.351,149.791 301.5,149.5 Z"/></g>
<g><path style="opacity:1" fill="#535353" d="M 301.5,149.5 C 300.351,149.791 299.684,150.624 299.5,152C 299.684,153.376 300.351,154.209 301.5,154.5C 300.791,155.404 299.791,155.737 298.5,155.5C 298.5,153.167 298.5,150.833 298.5,148.5C 299.791,148.263 300.791,148.596 301.5,149.5 Z"/></g>
<g><path style="opacity:1" fill="#525252" d="M 325.5,157.5 C 325.342,160.902 325.676,164.236 326.5,167.5C 325.883,167.389 325.383,167.056 325,166.5C 324.195,163.304 324.362,160.304 325.5,157.5 Z"/></g>
<g><path style="opacity:1" fill="#f1f1f1" d="M 377.5,167.5 C 376.833,167.5 376.167,167.5 375.5,167.5C 376.167,139.5 376.833,139.5 377.5,167.5 Z"/></g>
<g><path style="opacity:1" fill="#747474" d="M 432.5,157.5 C 433.482,160.962 433.815,164.629 433.5,168.5C 432.209,168.737 431.209,168.404 430.5,167.5C 432.402,164.663 433.069,161.329 432.5,157.5 Z"/></g>
<g><path style="opacity:1" fill="#b0b0b0" d="M 304.5,155.5 C 305.726,159.633 305.726,163.633 304.5,167.5C 304.3,155.697 303.633,155.697 302.5,167.5C 301.523,164.713 301.19,161.713 301.5,158.5C 300.5,158.5 299.5,158.5 298.5,158.5C 300.456,157.508 302.456,156.508 304.5,155.5 Z"/></g>
<g><path style="opacity:1" fill="#f3f3f3" d="M 304.5,167.5 C 303.833,167.5 303.167,167.5 302.5,167.5C 303.633,155.697 304.3,155.697 304.5,167.5 Z"/></g>
<g><path style="opacity:1" fill="#ebebeb" d="M 363.5,146.5 C 364.167,146.833 364.833,147.167 365.5,147.5C 365.631,148.239 365.464,148.906 365,149.5C 362.959,148.577 360.792,148.244 358.5,148.5C 358.5,150.833 358.5,153.167 358.5,155.5C 360.099,155.768 361.432,155.434 362.5,154.5C 363.222,154.082 363.722,153.416 364,152.5C 364.198,154.382 364.698,156.048 365.5,157.5C 368.335,165.677 365.335,169.01 356.5,167.5C 356.5,160.5 356.5,153.5 356.5,146.5C 358.833,146.5 361.167,146.5 363.5,146.5 Z"/></g>
<g><path style="opacity:1" fill="#222222" d="M 359.5,158.5 C 360.833,158.5 362.167,158.5 363.5,158.5C 364.401,162.241 363.068,164.241 359.5,164.5C 359.5,162.5 359.5,160.5 359.5,158.5 Z"/></g>
<g><path style="opacity:1" fill="#e0e0e0" d="M 224.5,146.5 C 224.5,152.5 224.5,158.5 224.5,164.5C 225.5,164.5 226.5,164.5 227.5,164.5C 228.167,158.654 228.833,152.654 229.5,146.5C 230.496,152.798 230.83,159.132 230.5,165.5C 227.5,169.5 224.5,169.5 221.5,165.5C 221.5,159.167 221.5,152.833 221.5,146.5C 222.5,146.5 223.5,146.5 224.5,146.5 Z"/></g>
<g><path style="opacity:1" fill="#c3c3c3" d="M 265.5,158.5 C 264.89,157.609 264.557,156.609 264.5,155.5C 266.167,155.5 267.833,155.5 269.5,155.5C 269.665,158.85 269.498,162.183 269,165.5C 265.706,169.473 262.54,169.473 259.5,165.5C 260.816,162.913 261.483,159.913 261.5,156.5C 261.483,153.087 260.816,150.087 259.5,147.5C 265.307,143.824 268.641,145.491 269.5,152.5C 268.167,152.5 266.833,152.5 265.5,152.5C 265.5,151.167 265.5,149.833 265.5,148.5C 264.5,148.5 263.5,148.5 262.5,148.5C 262.5,153.833 262.5,159.167 262.5,164.5C 263.5,164.5 264.5,164.5 265.5,164.5C 265.5,162.5 265.5,160.5 265.5,158.5 Z"/></g>
<g><path style="opacity:1" fill="#7c7c7c" d="M 264.5,155.5 C 264.557,156.609 264.89,157.609 265.5,158.5C 263.448,157.947 263.115,156.947 264.5,155.5 Z"/></g>
</svg>
